# xmcd CD database file
#
# Track frame offsets:
#	150
#	14173
#	25438
#	36512
#	44652
#	55894
#	68551
#	79009
#	91017
#	103257
#	112744
#	125717
#	138007
#	149357
#	160445
#	170993
#	181748
#	192033
#
# Disc length: 2710 seconds
#
# Revision: 0
# Processed by: cddbd v1.5.2PL0 Copyright (c) Steve Scherf et al.
# Submitted via: CDex 1.51
#
DISCID=000a9412
DTITLE=Various Artist - Country No.1's Of The 50's
DYEAR=2004
DGENRE=Country
TTITLE0=Frankie Laine - That Lucky Old Sun
TTITLE1=Carl Smith - Are You Teasing Me?
TTITLE2=The Carlisles - No Help Wanted
TTITLE3=Don Gibson - Blue Blue Day
TTITLE4=Faron Young - Country Girl
TTITLE5=Carl Smith - Let Old Mother Nature Have Her Way
TTITLE6=Hank Locklin - Let Me Be The One
TTITLE7=Hank Thompson - Wild Side Of Life
TTITLE8=Bobby Helms - Fraulein
TTITLE9=Louvin Brothers - I Don't Believe You've Met My Baby
TTITLE10=Pee Wee King - Slow Poke
TTITLE11=Porter Wagoner - A Satisfied Mind
TTITLE12=Ray Price- My Shoes Keep Walking Back To You
TTITLE13=Stonewall Jackson - Waterloo
TTITLE14=Carl Smith - Don't Just Stand There
TTITLE15=Ferlin Huskey - Gone
TTITLE16=Faron Young - Live Fast, Love Hard, Die Young
TTITLE17=Ray Price - Crazy Arms
EXTD=YEAR: 2004
EXTT0=
EXTT1=
EXTT2=
EXTT3=
EXTT4=
EXTT5=
EXTT6=
EXTT7=
EXTT8=
EXTT9=
EXTT10=
EXTT11=
EXTT12=
EXTT13=
EXTT14=
EXTT15=
EXTT16=
EXTT17=
PLAYORDER=
